<svg width="149" height="30" viewBox="0 0 149 30" fill="none" xmlns="http://www.w3.org/2000/svg">
<path d="M9.43105 29.0197H3.8214V15.0356H0V10.4826H3.82125V7.24289C3.82125 3.40378 5.51139 0.650391 11.1059 0.650391C12.2891 0.650391 14.1467 0.888884 14.1467 0.888884V5.11655H12.1956C10.2076 5.11655 9.43134 5.72127 9.43134 7.3931V10.4826H14.0723L13.659 15.0356H9.4312L9.43105 29.0197ZM22.3025 10.1188C22.2208 10.1188 22.1367 10.1218 22.0535 10.1239C16.8519 10.1239 14.472 14.0365 14.472 19.5906C14.472 26.5873 17.559 29.3876 22.0941 29.3876C24.6888 29.3876 26.3935 28.2955 27.4297 26.2574V29.0217H32.7653V10.4846H27.4297V13.3353C26.5836 11.5012 24.8313 10.1405 22.3025 10.1188ZM23.6592 14.4991C25.8439 14.4991 27.1552 16.0229 27.1552 18.6149L27.1602 21.2623C27.1602 23.0093 26.0772 25.0532 23.6592 25.0532C19.9419 25.0532 20.0412 21.0393 20.0412 19.7024C20.0412 15.2055 22.0218 14.4991 23.6592 14.4991ZM34.92 19.7541C34.92 17.5015 34.8122 10.1309 44.4151 10.1309C48.2698 10.1309 49.8794 11.3565 49.8794 11.3565L48.5857 15.3691C48.5857 15.3691 46.9782 14.4839 44.8836 14.4839C42.2008 14.4839 40.4889 16.0391 40.4889 18.7756L40.4919 20.7377C40.4919 23.3671 42.1436 25.1223 44.8891 25.1223C46.7973 25.1223 48.5561 24.2287 48.5561 24.2287L49.8465 28.1575C49.8465 28.1575 48.3748 29.3909 44.442 29.3909C35.2986 29.3909 34.9202 22.778 34.9202 19.7541H34.92ZM81.1639 10.1239C86.3656 10.1239 88.783 14.0365 88.783 19.5906C88.783 26.5873 85.6958 29.3876 81.1607 29.3876C78.5661 29.3876 76.648 28.2956 75.6118 26.2574V29.0217L70.3434 29.0196V1.21402L75.9371 0.726166V13.0842C76.7445 10.9221 79.3976 10.1239 81.164 10.1239H81.1639ZM79.5957 14.4991C77.411 14.4991 75.9371 16.0229 75.9371 18.6149L75.9319 21.2623C75.9286 23.0093 76.9526 25.0532 79.5957 25.0532C83.313 25.0532 83.2137 21.0393 83.2137 19.7024C83.2137 15.2055 81.2332 14.4991 79.5957 14.4991ZM59.585 10.1392C53.6852 10.1392 50.5705 13.3559 50.5705 19.0723V20.1343C50.5705 27.5537 54.9445 29.4638 60.1592 29.4638C65.2279 29.4638 67.5221 28.0461 67.5221 28.0461L66.4754 24.2707C66.4754 24.2707 63.7767 25.419 60.8299 25.419C57.775 25.419 56.4612 24.6404 56.1245 21.7046H67.9693V18.6758C67.9693 12.475 64.4737 10.139 59.5849 10.139L59.585 10.1392ZM59.7272 13.9197C61.7694 13.9197 63.0927 15.172 63.0201 18.0763H56.1347C56.2541 15.0195 57.6812 13.9198 59.7272 13.9198V13.9197ZM99.9366 10.1137C93.878 10.1137 90.6884 13.528 90.6884 19.6465C90.6884 28.0414 96.1865 29.3927 99.9468 29.3927C105.451 29.3927 109.114 26.4291 109.114 19.7227C109.114 12.7425 104.996 10.1137 99.9366 10.1137V10.1137ZM99.8604 14.5143C102.524 14.5143 103.58 16.5081 103.58 18.7776V20.7289C103.58 23.4783 102.103 25.0685 99.8503 25.0685C97.7434 25.0685 96.2628 23.581 96.2628 20.7289V18.7776C96.2628 15.7359 98.0247 14.5143 99.8604 14.5143V14.5143ZM120.257 10.1137C114.199 10.1137 111.009 13.528 111.009 19.6465C111.009 28.0414 116.507 29.3927 120.267 29.3927C125.772 29.3927 129.434 26.4291 129.434 19.7227C129.434 12.7425 125.316 10.1137 120.257 10.1137V10.1137ZM120.181 14.5143C122.845 14.5143 123.901 16.5081 123.901 18.7776V20.7289C123.901 23.4783 122.424 25.0685 120.171 25.0685C118.064 25.0685 116.584 23.581 116.584 20.7289V18.7776C116.584 15.7359 118.345 14.5143 120.181 14.5143V14.5143ZM131.548 29.0197V1.21402L137.158 0.726166V19.3633L142.724 10.4826H148.648L142.842 19.6804L148.872 29.0197H142.931L137.158 19.9514V29.0197H131.548Z" fill="#A0A4B1"/>
</svg>
