<svg width="137" height="45" viewBox="0 0 137 45" fill="none" xmlns="http://www.w3.org/2000/svg">
<path d="M17.6229 0H18.8246C22.9968 0.0906988 27.1009 1.76863 30.0486 4.73901C28.9602 5.85007 27.8492 6.91578 26.7835 8.02684C25.1282 6.53031 23.1328 5.3739 20.9561 4.96576C17.7363 4.28552 14.267 4.89773 11.5687 6.73438C8.62104 8.66173 6.62566 11.9269 6.19484 15.4188C5.71868 18.8653 6.69369 22.4933 8.93848 25.1689C11.0926 27.7765 14.3804 29.4091 17.7816 29.5225C20.9561 29.7039 24.2666 28.7288 26.5794 26.5067C28.3934 24.9422 29.2323 22.5613 29.5044 20.2485C25.7404 20.2485 21.9764 20.2712 18.2124 20.2485V15.5775H34.062C34.8783 20.5886 33.6992 26.2346 29.8899 29.8172C27.3503 32.3568 23.8358 33.8533 20.2532 34.1481C16.7839 34.4882 13.2013 33.8306 10.1176 32.1527C6.42159 30.18 3.47388 26.8468 2.0227 22.9241C0.662218 19.3188 0.639543 15.2374 1.90933 11.6094C3.06574 8.29894 5.28786 5.3739 8.14487 3.33318C10.8885 1.31513 14.2217 0.204072 17.6229 0Z" fill="#A0A4B1"/>
<path d="M108.549 1.17871H113.401V33.5582C111.792 33.5582 110.159 33.5808 108.549 33.5355C108.572 22.765 108.549 11.9719 108.549 1.17871V1.17871Z" fill="#A0A4B1"/>
<path d="M44.8549 12.4033C47.848 11.8364 51.0904 12.4713 53.562 14.2626C55.8068 15.8498 57.3713 18.3441 57.8475 21.065C58.4597 24.2168 57.6888 27.6634 55.6481 30.1576C53.4486 32.9466 49.8433 34.4431 46.3288 34.2163C43.1089 34.0349 39.9798 32.425 38.0752 29.7948C35.9211 26.8924 35.3995 22.9017 36.5786 19.5005C37.7577 15.8498 41.0909 13.0609 44.8549 12.4033V12.4033ZM45.5351 16.7115C44.3107 17.0289 43.177 17.7318 42.3607 18.7295C40.1612 21.3598 40.2973 25.6453 42.7235 28.0942C44.1066 29.5 46.1927 30.1576 48.1201 29.7721C49.9114 29.4547 51.4759 28.2529 52.3375 26.6657C53.8341 23.9674 53.4033 20.2487 51.1131 18.14C49.6393 16.7795 47.4852 16.2126 45.5351 16.7115Z" fill="#A0A4B1"/>
<path d="M68.8895 12.4035C72.3134 11.7459 76.0547 12.6983 78.617 15.1018C82.7891 18.8431 83.2426 25.8496 79.6827 30.1578C77.5286 32.8787 74.0367 34.3753 70.5901 34.2166C67.3023 34.1259 64.0598 32.4933 62.1098 29.795C59.9103 26.8246 59.4342 22.7432 60.6813 19.2739C61.9284 15.7367 65.1935 13.0384 68.8895 12.4035V12.4035ZM69.5698 16.7117C68.3453 17.0291 67.2116 17.732 66.3953 18.7071C64.2185 21.292 64.3092 25.5095 66.6447 27.981C68.0279 29.4549 70.182 30.1805 72.1773 29.7723C73.946 29.4322 75.5332 28.2531 76.3948 26.6659C77.8687 23.9449 77.4379 20.2263 75.1251 18.1175C73.6512 16.757 71.4971 16.2128 69.5698 16.7117Z" fill="#A0A4B1"/>
<path d="M89.2759 13.7184C91.8834 12.0858 95.3527 11.6323 98.1643 13.0381C99.0487 13.4236 99.7742 14.0811 100.477 14.7387C100.5 14.1265 100.477 13.4916 100.5 12.8567C102.019 12.8794 103.538 12.8567 105.08 12.8794V32.8785C105.057 35.8942 104.287 39.0913 102.11 41.2908C99.7289 43.717 96.0783 44.4652 92.7904 43.9664C89.2759 43.4449 86.2148 40.8826 84.8543 37.6402C86.2148 36.9826 87.6433 36.4611 89.0491 35.8489C89.8427 37.7082 91.4526 39.2954 93.4707 39.6582C95.4887 40.021 97.8242 39.5222 99.1393 37.8442C100.545 36.121 100.545 33.7628 100.477 31.654C99.4341 32.6744 98.2324 33.5814 96.7812 33.9215C93.6294 34.8058 90.1602 33.7174 87.734 31.586C85.2851 29.4546 83.8339 26.1668 83.97 22.9016C84.038 19.2056 86.1241 15.6457 89.2759 13.7184V13.7184ZM93.9695 16.6207C92.5864 16.8475 91.2939 17.6184 90.4096 18.6841C88.2782 21.2237 88.2782 25.2824 90.4323 27.7767C91.6567 29.2505 93.6294 30.0668 95.5341 29.8627C97.3254 29.6813 98.9806 28.5476 99.8649 26.9831C101.361 24.3301 101.112 20.7248 99.094 18.412C97.8469 16.9835 95.8515 16.2806 93.9695 16.6207V16.6207Z" fill="#A0A4B1"/>
<path d="M119.228 14.8748C121.949 12.3352 126.144 11.4736 129.636 12.8114C132.946 14.0585 135.055 17.2103 136.121 20.4527C131.2 22.4935 126.302 24.5115 121.382 26.5522C122.062 27.8447 123.105 29.0238 124.511 29.4999C126.484 30.2029 128.842 29.9534 130.497 28.6383C131.155 28.1395 131.676 27.4819 132.175 26.847C133.422 27.686 134.669 28.5022 135.917 29.3412C134.148 31.9942 131.178 33.8535 127.98 34.1483C124.443 34.5791 120.679 33.2186 118.389 30.4523C114.625 26.0987 114.988 18.7975 119.228 14.8748V14.8748ZM121.654 19.0696C120.883 20.1806 120.566 21.5411 120.588 22.8789C123.876 21.5184 127.164 20.158 130.452 18.7748C129.908 17.505 128.593 16.7341 127.255 16.53C125.101 16.1445 122.856 17.301 121.654 19.0696V19.0696Z" fill="#A0A4B1"/>
</svg>
