<svg width="161" height="40" viewBox="0 0 161 40" fill="none" xmlns="http://www.w3.org/2000/svg">
<path d="M17.7036 0.959252C15.6347 1.19111 12.5313 2.15423 10.7656 3.11735C6.02131 5.66784 2.81091 9.64517 1.20571 14.9423C0.884668 15.9768 0.510122 18.7948 0.527957 20.1146C0.527957 21.2739 0.884668 24.1098 1.09869 24.7876C1.20571 25.1086 1.43757 25.8755 1.63376 26.4641C1.9548 27.4629 3.50649 30.6019 3.77403 30.816C3.82753 30.8695 4.1129 31.2262 4.38044 31.6364C5.04035 32.6174 6.7704 34.3652 8.0724 35.364C9.07119 36.131 11.8892 37.754 12.2459 37.7718C12.3351 37.7718 12.3529 37.0941 12.2994 36.2023C12.1746 34.2226 12.5491 31.5294 13.3517 28.7827C13.4944 28.319 13.6014 27.7126 13.6014 27.4451C13.6014 27.1775 13.6728 26.8921 13.7619 26.803C13.8511 26.696 14.0116 26.1787 14.1008 25.6437C14.2078 25.1086 14.3862 24.2882 14.511 23.8244C14.6894 23.1288 14.6716 22.8613 14.4219 22.1122C14.0651 20.9707 14.0473 19.1158 14.404 18.2241C15.2423 16.1016 16.1697 15.299 17.7393 15.299C19.6298 15.299 20.5395 16.7259 20.1827 19.1158C20.0222 20.2038 19.5763 21.916 19.291 22.4511C19.2196 22.6116 19.0948 23.0575 19.0413 23.4321C18.9699 23.8244 18.8272 24.3773 18.7381 24.6805C18.4884 25.3761 18.9699 26.7316 19.612 27.2489C20.2184 27.7304 21.4847 27.8731 22.644 27.6056C23.4645 27.4272 23.8034 27.2132 24.6595 26.3928C25.6761 25.394 26.443 24.2346 26.443 23.6817C26.443 23.5212 26.5322 23.3072 26.6392 23.2002C27.1386 22.7008 27.4061 18.8126 27.0316 17.1718C26.6214 15.3704 25.355 13.6047 23.7142 12.5702C22.0733 11.5179 18.6846 11.2147 16.5978 11.9281C15.1353 12.4275 13.8333 13.2658 12.995 14.2467C12.2459 15.1207 11.4612 16.5475 11.4612 17.0469C11.4612 17.2253 11.372 17.4571 11.265 17.5642C11.1579 17.6712 11.0331 18.3489 10.9796 19.0802C10.8904 20.1681 10.9618 20.6675 11.2828 21.7377C11.4968 22.4689 11.8892 23.325 12.1211 23.6461C12.6026 24.2882 12.6026 24.5379 12.1567 26.2501C12.0319 26.7138 11.8179 27.1418 11.693 27.1954C10.5694 27.6234 8.28642 24.9302 7.5195 22.2549C7.23413 21.2383 7.21629 17.6177 7.50166 16.5475C7.62651 16.1016 7.84054 15.4952 7.98322 15.1742C8.1259 14.871 8.25075 14.5678 8.25075 14.4964C8.25075 14.4251 8.60746 13.8187 9.05335 13.1588C11.372 9.663 15.1353 7.8081 19.8974 7.8081C20.9853 7.8081 22.109 7.87945 22.4122 7.96863C24.8735 8.73555 25.5334 8.98525 26.4965 9.55599C28.3693 10.6796 29.7248 12.2135 31.0803 14.7818C31.1694 14.9423 31.2943 15.3704 31.3478 15.7271C31.4191 16.0838 31.544 16.4227 31.6332 16.4762C31.7223 16.5297 31.7937 17.689 31.7937 19.0623C31.7937 21.5415 31.6153 22.5403 30.8662 24.5735C30.028 26.803 27.8699 29.2643 25.908 30.2274C24.7843 30.7625 22.6797 31.351 21.8414 31.351C20.7178 31.351 18.5062 30.4236 17.8998 29.6745C17.6144 29.3356 17.3469 29.4605 17.3469 29.942C17.3469 30.1204 17.2755 30.4236 17.1685 30.6019C17.0794 30.7625 16.9188 31.2619 16.8297 31.7077C16.3124 34.062 15.5812 35.9704 14.4575 37.754C14.1187 38.3069 14.404 38.6279 15.3315 38.7528C15.7952 38.8241 16.4194 38.949 16.7048 39.0382C17.4182 39.27 21.2885 39.2344 22.5905 39.0025C23.7677 38.7885 25.6761 38.2534 26.5322 37.8967C31.9185 35.6851 36.0029 31.1905 37.7686 25.4653C38.7139 22.4154 38.7674 18.8661 37.9113 15.299C37.6259 14.1397 37.5367 13.8722 36.7698 12.0886C35.664 9.48465 33.167 6.43477 30.6344 4.56203C28.4584 2.95683 26.3182 2.02938 22.9829 1.22679C22.0555 1.01276 18.7559 0.834403 17.7036 0.959252V0.959252ZM65.271 7.39789C64.5754 7.5049 63.4696 8.64638 63.1843 9.53815C62.8811 10.5191 63.1843 11.5714 64.0404 12.3918C65.9309 14.2289 69.2127 12.4989 68.8025 9.85919C68.5528 8.18265 67.0189 7.11252 65.271 7.39789ZM45.8303 8.45018C45.6697 8.62854 45.6697 30.1382 45.8481 30.3879C45.9373 30.5306 46.7042 30.5841 48.2024 30.5663L50.4318 30.5484L50.521 26.9278C50.5924 23.985 50.6637 23.2715 50.8777 23.1467C51.0204 23.0575 52.2332 22.9683 53.5709 22.9683C56.4959 22.9683 57.7266 22.7543 59.0643 22.0409C60.8121 21.0956 61.8288 19.7401 62.3817 17.582C62.7205 16.2265 62.7205 15.2455 62.3638 13.8544C62.0428 12.6059 61.9001 12.3027 61.1332 11.286C60.1879 10.0197 59.2248 9.32413 57.6552 8.77123C56.7813 8.48586 56.05 8.43235 51.3236 8.37884C48.3808 8.34317 45.9016 8.37884 45.8303 8.45018V8.45018ZM55.622 12.8912C56.817 13.2658 57.4055 13.8009 57.6731 14.764C58.012 16.0303 57.7623 17.2074 57.0132 17.9209C56.1927 18.6878 55.4615 18.8661 53.0715 18.8661C51.502 18.8661 51.0204 18.8126 50.8064 18.5808C50.5745 18.3668 50.521 17.8495 50.521 15.8163C50.521 12.6059 50.5032 12.6237 52.9823 12.6237C54.0525 12.6237 55.0869 12.7307 55.622 12.8912ZM86.9056 11.8389C86.9056 13.0696 86.8164 14.2289 86.7272 14.4251C86.6023 14.657 86.3527 14.764 85.9246 14.764C85.6036 14.764 85.3004 14.8353 85.2647 14.9423C85.2468 15.0315 85.2468 15.6557 85.3004 16.3157C85.3895 17.4928 85.4074 17.5106 85.9424 17.6355C86.2456 17.689 86.5845 17.796 86.6915 17.8674C86.852 17.9565 86.9056 19.3655 86.9056 22.9327C86.9056 27.7304 86.9234 27.9088 87.3158 28.6222C88.1362 30.1382 89.4204 30.6733 92.0244 30.6019L93.7722 30.5484L93.8258 28.8184L93.8793 27.0705H93.4334C92.7556 27.0705 91.7568 26.5354 91.6498 26.1074C91.5963 25.8934 91.5428 24.0028 91.5428 21.8804C91.5428 18.9553 91.5963 17.9744 91.7747 17.8317C91.8995 17.7247 92.3989 17.6177 92.8805 17.582L93.7722 17.5285V14.8531L92.7913 14.7996C92.2562 14.764 91.7568 14.6391 91.6855 14.5321C91.6141 14.4073 91.5428 13.2479 91.5428 11.946V9.59166H86.9056V11.8389ZM153.2 9.69867C153.129 9.77002 153.075 10.8937 153.075 12.1957C153.075 14.7283 153.058 14.764 152.077 14.764C151.631 14.764 151.631 14.7818 151.684 16.1373C151.738 17.4928 151.756 17.5285 152.219 17.582C152.469 17.6177 152.772 17.7425 152.861 17.8495C152.968 17.9744 153.075 20.1325 153.129 22.8791C153.182 25.5188 153.272 27.9266 153.343 28.212C153.557 28.9967 154.663 29.9955 155.715 30.3344C156.892 30.7268 159.889 30.7625 160.192 30.3879C160.335 30.2274 160.388 29.5853 160.352 28.6579L160.299 27.1597L159.675 27.0527C158.997 26.9457 158.23 26.5889 158.034 26.2857C157.962 26.1787 157.891 24.2347 157.891 21.9695C157.891 17.3145 157.784 17.6177 159.336 17.6177C160.352 17.6177 160.442 17.4393 160.352 15.8163L160.299 14.8531L159.14 14.764L157.98 14.6748L157.891 12.1778L157.802 9.68084L155.555 9.62733C154.324 9.6095 153.272 9.64517 153.2 9.69867V9.69867ZM78.077 14.3359C77.203 14.5678 76.1864 15.1564 75.5086 15.8519C74.6882 16.708 74.4742 16.6545 74.385 15.5666L74.3315 14.8531H69.8726V30.5484L72.1199 30.5841C74.3315 30.6376 74.385 30.6198 74.492 30.2274C74.5455 30.0134 74.599 27.7483 74.599 25.1799C74.599 20.0968 74.6169 19.9541 75.6692 18.9553C76.1329 18.5094 76.3826 18.4203 77.3814 18.3668L78.5407 18.2954L79.2363 19.0267C80.0567 19.8828 79.9675 19.0623 80.0389 26.4463C80.0567 28.4082 80.0745 30.1382 80.0924 30.3166C80.128 30.5663 80.4134 30.6019 82.411 30.5663L84.6761 30.5484V18.0279L84.1589 17.0113C83.2671 15.2455 81.8938 14.4073 79.7892 14.3002C79.0401 14.2824 78.2731 14.2824 78.077 14.3359V14.3359ZM100.371 14.3359C98.4452 14.8531 97.5177 15.3704 96.3227 16.5475C94.7175 18.1706 93.9863 20.0611 93.9863 22.6116C94.0041 27.0883 96.8043 30.4058 100.942 30.7981C104.474 31.137 107.202 30.1025 108.95 27.7661C109.2 27.4272 109.735 26.3392 109.735 26.1431C109.735 26.0717 108.701 26.0004 107.452 26.0004H105.169L104.634 26.5533C104.01 27.1954 103.136 27.6056 102.333 27.6056C101.531 27.6056 100.3 27.0348 99.7293 26.4284C99.3013 25.9469 98.677 24.5557 98.677 24.0741C98.677 23.9136 99.979 23.8601 104.17 23.8601C107.185 23.8601 109.735 23.7888 109.86 23.7174C110.127 23.5391 109.878 20.7032 109.485 19.6687C108.683 17.5106 107.167 15.6914 105.633 15.0493C105.187 14.871 104.67 14.6391 104.491 14.5499C104.117 14.3538 100.942 14.1932 100.371 14.3359V14.3359ZM103.849 18.2419C104.545 18.7235 105.151 19.8649 105.062 20.507C105.009 20.9172 104.973 20.9172 101.959 20.9707C98.4808 21.0243 98.463 21.0064 99.0159 19.7223C99.4083 18.8305 100.193 18.0279 100.924 17.796C101.763 17.5285 103.118 17.7425 103.849 18.2419ZM126.768 14.3359C124.699 14.8888 123.254 15.7984 122.131 17.2074C121.685 17.7782 121.328 18.3132 121.328 18.4203C121.328 18.5094 121.203 18.8305 121.043 19.1337C120.882 19.4191 120.65 20.3108 120.526 21.1134C119.901 24.9302 121.614 28.4973 124.824 30.1025L126.055 30.7268H128.641C131.316 30.7268 131.548 30.6733 133.189 29.7993C134.384 29.1573 136.346 26.6603 136.043 26.1609C135.971 26.0717 134.955 26.0004 133.76 26.0004H131.566L131.12 26.5176C129.336 28.533 126.001 27.4986 125.288 24.6984C125.181 24.3238 125.181 24.0028 125.27 23.9314C125.359 23.8779 127.91 23.8423 130.959 23.8601C135.311 23.8601 136.488 23.8244 136.506 23.6461C136.667 21.4166 135.597 18.1171 134.259 16.6902C133.51 15.8876 132.208 14.9958 131.566 14.8353C131.28 14.764 130.959 14.6391 130.835 14.5499C130.585 14.3538 127.321 14.1932 126.768 14.3359V14.3359ZM129.55 17.8139C130.353 18.0992 131.28 19.098 131.423 19.8649C131.637 21.0242 131.655 21.0243 128.338 20.9707C125.359 20.9172 125.341 20.9172 125.288 20.507C125.216 20.0076 125.841 18.777 126.376 18.3132C127.143 17.6712 128.48 17.4571 129.55 17.8139V17.8139ZM142.285 14.3359C138.629 15.2099 137.309 16.5119 137.291 19.2229C137.291 22.1479 138.754 23.3785 143.088 24.1455C146.066 24.6627 146.922 25.1264 146.887 26.2501C146.869 27.0527 146.316 27.5699 145.21 27.8018C143.819 28.105 142.731 27.7661 141.857 26.7851L141.161 26.0004H139.003C137.255 26.0004 136.845 26.0539 136.845 26.2501C136.845 26.7673 137.559 28.1228 138.147 28.8006C138.7 29.3891 139.128 29.6745 140.805 30.4771C140.965 30.5663 141.839 30.709 142.713 30.816C144.336 31.0122 147.154 30.8338 147.867 30.4771C148.028 30.4058 148.492 30.1739 148.884 29.9955C149.901 29.514 150.864 28.426 151.221 27.3915C151.613 26.2144 151.506 24.5735 150.953 23.4321C150.293 22.0944 148.545 21.1313 145.941 20.6675C142.588 20.079 142.535 20.0611 142 19.5439C141.358 18.884 141.358 18.6521 142 17.9387C142.517 17.368 142.552 17.3501 143.979 17.3501C145.406 17.3501 145.442 17.368 145.959 17.9387C146.244 18.2597 146.476 18.6343 146.476 18.777C146.476 18.991 146.851 19.0445 148.706 19.0445C151.167 19.0445 151.096 19.098 150.668 17.8317C149.883 15.5844 147.867 14.4429 144.514 14.3181C143.48 14.2824 142.481 14.2824 142.285 14.3359V14.3359ZM118.564 14.7105C117.779 14.978 116.691 15.8698 116.352 16.5119C116.013 17.1539 115.71 16.8864 115.621 15.8163L115.532 14.8531H111.073L111.019 22.3441C111.001 26.4641 111.019 30.0134 111.073 30.2452C111.162 30.6376 111.215 30.6376 113.356 30.6019C114.586 30.5841 115.585 30.4771 115.656 30.3701C115.728 30.2809 115.799 28.3903 115.799 26.1787C115.799 22.683 115.835 22.0587 116.138 21.2739C116.762 19.6509 118.1 18.6878 119.776 18.6878C120.24 18.6878 120.436 18.5986 120.49 18.3668C120.615 17.8495 120.633 15.4417 120.526 14.9067C120.419 14.4786 120.329 14.4073 119.848 14.4251C119.527 14.4429 118.956 14.5678 118.564 14.7105V14.7105ZM63.6302 14.978C63.5766 15.1028 63.5588 18.6165 63.5766 22.79L63.6302 30.3701L65.7526 30.4593C67.0367 30.5128 67.9642 30.4771 68.1069 30.3701C68.3031 30.2274 68.3566 28.7114 68.3566 22.6473C68.3744 18.5094 68.3209 15.0315 68.2674 14.9423C68.089 14.6748 63.7193 14.7105 63.6302 14.978V14.978Z" fill="#A0A4B1"/>
</svg>
