<svg width="156" height="36" viewBox="0 0 156 36" fill="none" xmlns="http://www.w3.org/2000/svg">
<path d="M26.1147 35.1609L15.9434 34.9748C12.65 34.9101 9.34859 35.0395 6.11998 34.3679C1.20828 33.3645 0.860334 28.4447 0.496205 24.3179C-0.0054842 18.5162 0.188718 12.6092 1.13545 6.85592C1.66951 3.62731 3.77337 1.70147 7.02626 1.49108C18.0068 0.730458 29.0601 0.819467 40.0164 1.1755C41.1735 1.20787 42.3387 1.38589 43.4796 1.58818C49.1115 2.57538 49.2491 8.1506 49.6132 12.8438C49.9773 17.5856 49.8236 22.3516 49.1277 27.0611C48.5694 30.9613 47.5013 34.2304 42.9941 34.5459C37.3461 34.9586 31.8275 35.2904 26.1633 35.1852C26.1633 35.1609 26.1309 35.1609 26.1147 35.1609V35.1609ZM20.1349 25.289C24.3912 22.8452 28.5665 20.442 32.7985 18.0145C28.5342 15.5707 24.3669 13.1675 20.1349 10.74V25.289Z" fill="#A0A4B1"/>
<path d="M131.198 30.7258C131.004 31.5188 130.834 32.1419 130.664 32.8054H126.683V2.09717H131.327V13.4256C131.57 13.1181 131.691 12.9887 131.797 12.8511C132.59 11.7587 133.617 11.0467 134.944 10.7715C137.056 10.3589 138.861 11.2894 139.5 13.3204C139.913 14.5828 140.18 15.9341 140.212 17.253C140.277 20.6435 140.228 24.0258 140.107 27.4163C140.058 28.452 139.743 29.5121 139.346 30.4831C138.043 33.6874 133.787 34.1729 131.675 31.3974C131.546 31.2275 131.424 31.0414 131.198 30.7258V30.7258ZM131.424 22.278V27.8937C131.424 28.8081 131.91 29.3664 132.824 29.5768C133.722 29.7872 134.451 29.4392 134.815 28.6058C134.969 28.2578 135.122 27.8937 135.13 27.5296C135.219 24.0987 135.3 20.6678 135.325 17.2288C135.325 16.5895 135.171 15.926 134.977 15.3029C134.613 14.1782 133.609 13.8464 132.622 14.5018C131.878 15.0035 131.424 15.7156 131.424 16.6623V22.278ZM118.801 11.2085H123.664V32.8216H119.869C119.732 32.0043 119.594 31.1628 119.432 30.1756C119.173 30.5559 119.02 30.7986 118.858 31.0414C117.596 32.862 115.807 33.4851 113.695 33.1533C111.891 32.862 110.807 31.4703 110.564 29.1884C110.491 28.5087 110.459 27.8209 110.459 27.1412C110.442 22.0838 110.459 17.0103 110.459 11.9529V11.1923H115.378V12.0743C115.378 16.9617 115.362 21.8411 115.395 26.7285C115.395 27.4244 115.467 28.1445 115.589 28.8404C115.726 29.5525 116.244 29.8115 116.94 29.7629C118.065 29.6739 118.842 28.8404 118.842 27.7238V12.1633C118.801 11.8477 118.801 11.5564 118.801 11.2085V11.2085ZM85.3175 11.1923H90.205V12.1067C90.205 16.9698 90.1888 21.8249 90.2212 26.6718C90.2212 27.3677 90.2859 28.0879 90.4315 28.7676C90.6176 29.5687 91.087 29.8276 91.8881 29.7224C92.9966 29.5687 93.6682 28.8 93.6763 27.6752V12.1957V11.2247H98.5395V32.8216H94.7606C94.6231 32.0205 94.4855 31.1951 94.3075 30.1513C94.0647 30.5154 93.9272 30.7258 93.7896 30.9443C92.5273 32.7973 90.7552 33.477 88.5947 33.1453C86.8631 32.8863 85.8031 31.6078 85.4794 29.5121C85.3904 28.8566 85.3256 28.2093 85.3256 27.5538C85.3095 22.3023 85.3094 17.0265 85.3094 11.7749L85.3175 11.1923ZM82.8091 22.7312C82.7929 23.4594 82.7444 24.1877 82.7039 24.9159C82.5178 27.1007 82.4288 30.1999 80.6648 31.7939C79.54 32.7973 78.1159 33.1614 76.6432 33.21C75.9877 33.2262 75.3242 33.2262 74.6688 33.1372C71.5696 32.6678 70.1293 31.3003 69.6114 27.8937C69.0207 23.9611 68.9722 19.9638 69.6762 16.0312C70.4044 11.961 72.9129 10.5207 76.8131 10.7877C80.4544 11.0467 82.0808 13.4337 82.5097 16.8323C82.7444 18.7824 82.8576 20.7568 82.8091 22.7312V22.7312ZM77.8569 21.9867C77.8569 20.603 77.8893 19.2112 77.8408 17.8276C77.8084 17.0265 77.7032 16.2173 77.5333 15.4243C77.3391 14.5099 76.7565 14.073 76.0282 14.0892C75.3161 14.1053 74.8144 14.5423 74.5555 15.3919C74.4665 15.7075 74.3694 16.0312 74.3694 16.3468C74.3694 18.5154 74.3532 20.692 74.337 22.8606C74.3208 24.8836 74.0619 27.0036 74.7012 28.9375C74.8954 29.5282 75.397 29.8519 76.0525 29.8519C76.6917 29.8519 77.1125 29.5363 77.3472 28.9699C77.5333 28.533 77.6951 28.0555 77.6951 27.5862C77.7517 25.7251 77.8569 23.8559 77.8569 21.9867ZM62.4745 17.9166C62.9034 15.8208 63.308 13.7736 63.753 11.7183C64.3113 9.10463 64.9344 6.49099 65.4846 3.86926C65.6222 3.23001 65.8811 3.07627 66.488 3.09245C67.7908 3.14101 69.1178 3.10864 70.5096 3.10864C70.0565 4.77554 69.6114 6.36153 69.1745 7.92324C67.7908 12.8268 66.4071 17.7466 65.0396 22.6664C64.9344 23.0467 64.8858 23.4594 64.8858 23.864C64.8697 26.5505 64.8858 29.2288 64.8858 31.9153V32.7892H60.136C60.1198 32.5465 60.0874 32.3037 60.0874 32.061C60.0874 30.5397 59.9661 29.0104 60.1036 27.5053C60.4516 23.8883 59.3025 20.5626 58.372 17.1964C57.142 12.7459 55.8959 8.27927 54.666 3.8288C54.6012 3.61842 54.5769 3.39185 54.5122 3.13291H59.3592C60.3787 8.04461 61.4064 12.9563 62.4745 17.9166ZM155.408 23.5565H147.22C147.309 25.1991 147.341 26.7609 147.511 28.3064C147.632 29.3826 148.223 29.8438 149.153 29.8519C150.124 29.8681 150.691 29.3826 150.917 28.3145C150.99 27.9665 151.039 27.6186 151.071 27.2625C151.104 26.947 151.12 26.6071 151.144 26.154C152.528 26.2268 153.879 26.3077 155.214 26.3644C155.991 28.6705 154.591 31.6321 152.236 32.5465C150.383 33.2747 148.482 33.2747 146.588 32.7164C145.188 32.3037 144.145 31.4136 143.675 30.0461C143.238 28.7676 142.826 27.4325 142.737 26.0973C142.494 22.804 142.405 19.4783 142.907 16.1768C142.996 15.6266 143.149 15.1006 143.319 14.5666C143.999 12.3656 145.48 11.0143 147.77 10.7877C149.016 10.6663 150.302 10.7149 151.532 10.9253C153.523 11.2732 154.583 12.7055 155.044 14.5828C155.255 15.4648 155.408 16.371 155.441 17.2692C155.449 19.3326 155.408 21.3798 155.408 23.5565ZM150.756 20.7163C150.756 19.0899 150.772 17.5605 150.739 16.0231C150.739 15.659 150.602 15.2786 150.464 14.9307C150.189 14.251 149.615 14.0649 148.927 14.0649C148.239 14.0649 147.802 14.4128 147.632 15.0359C147.114 16.9051 147.284 18.8147 147.3 20.7325C148.538 20.7163 149.663 20.7163 150.756 20.7163V20.7163Z" fill="#A0A4B1"/>
<path d="M102.294 7.07406H97.4795V3.17383H111.85V7.04978H107.068V32.7897H102.302L102.294 7.07406Z" fill="#A0A4B1"/>
</svg>
